# xmcd
#
# Track frame offsets:
#	150
#	11748
#	28793
#	47155
#	65957
#	76852
#	97059
#	115430
#	129818
#	146401
#	164122
# Disc length: 2489 seconds
# Revision: 1
# Processed by: cddbd v1.5.2PL0 Copyright (c) Steve Scherf et al.
#
# Submitted via: libkcddb 0.31
#
DISCID=9c09b70b
DTITLE=Johnny Littlejohn - So-Called Friends
DYEAR=1985
DGENRE=Blues
TTITLE0=Bloody Tears
TTITLE1=Lottery Blues
TTITLE2=So-Called Friends
TTITLE3=Chips Flying Everywhere (I Can't Stay Here)
TTITLE4=Two-Way Street
TTITLE5=Just A Little Love
TTITLE6=I Felt So Good
TTITLE7=Seven Day Blues
TTITLE8=Lost In The Jungle
TTITLE9=Take One
TTITLE10=She's Too Much
EXTD=
EXTT0=
EXTT1=
EXTT2=
EXTT3=
EXTT4=
EXTT5=
EXTT6=
EXTT7=
EXTT8=
EXTT9=
EXTT10=
PLAYORDER=
